<svg width="114" height="24" viewBox="0 0 114 24" fill="none" xmlns="http://www.w3.org/2000/svg">
<path d="M29.6089 6.89492C29.2322 6.55584 28.2902 6.17909 27.16 6.17909C23.9575 6.17909 22.3374 8.25127 22.3374 10.4742V23.6608H20.1145V5.65161H22.3374V7.91218C23.204 6.25443 25.3138 5.23718 27.4614 5.23718C28.5163 5.23718 29.1191 5.42556 29.6089 5.61394V6.89492Z" fill="#1C1C1C"/>
<path d="M38.9152 6.44283H33.2261V19.8932C33.2261 22.4552 34.281 23.3971 36.1271 23.3971H38.9152V24H36.1271C32.8116 24 31.0032 22.1161 31.0032 19.6295V3.35339H33.2261V5.87768H38.9152V6.44283Z" fill="#1C1C1C"/>
<path d="M51.9138 0.60281H45.5465V23.9621H43.0599V0.60281H36.6926V0H51.9138V0.60281Z" fill="#1C1C1C"/>
<path d="M63.5936 23.6229H61.3707V21.0609C60.5042 22.8694 58.319 23.9997 55.983 23.9997C51.6126 23.9997 49.7288 21.7768 49.7288 18.6497V5.65137H51.9517V18.6497C51.9517 21.4754 53.308 23.2838 56.1714 23.2838C59.4869 23.2838 61.4084 20.7972 61.4084 18.3859V5.65137H63.6313V23.6229H63.5936Z" fill="#1C1C1C"/>
<path d="M80.2084 23.623H77.9855V10.6247C77.9855 7.79897 76.6292 5.99052 73.7658 5.99052C70.4503 5.99052 68.5288 8.47715 68.5288 10.8884V23.623H66.3059V5.65142H68.5288V8.2134C69.3954 6.40494 71.5806 5.27466 73.9165 5.27466C78.287 5.27466 80.1708 7.49756 80.1708 10.6247V23.623H80.2084Z" fill="#1C1C1C"/>
<path d="M99.3488 14.1664L84.5797 14.2041C84.5797 14.3548 84.5797 14.4678 84.5797 14.6185C84.5797 18.8383 86.5765 23.3971 91.2484 23.3971C95.4304 23.3971 97.3142 19.8932 97.578 16.7284H99.2357C98.8966 21.4756 95.7319 23.9622 91.2484 23.9622C86.0867 23.9622 82.3191 19.9309 82.3191 14.5809C82.3191 9.45691 85.8983 5.23718 90.9846 5.23718C95.9579 5.23718 99.3864 8.515 99.3864 13.752V14.1664H99.3488ZM97.1259 13.6013C97.1259 9.98437 95.3174 5.83999 90.947 5.83999C87.0286 5.83999 84.9564 9.56993 84.6173 13.6013H97.1259Z" fill="#1C1C1C"/>
<path d="M107.449 24.0001C103.869 24.0001 101.081 21.8525 101.081 18.1979H102.739C102.739 21.0236 104.472 23.3972 107.449 23.3972C110.124 23.3972 111.857 21.5888 111.857 19.4412C111.857 17.1053 110.086 16.1257 108.541 15.749L106.582 15.2968C103.869 14.6563 101.458 13.2247 101.458 10.1729C101.458 7.00808 104.133 5.2373 107.336 5.2373C111.028 5.2373 113.213 7.34717 113.213 10.625H111.668C111.668 8.13837 110.802 5.84011 107.336 5.84011C104.246 5.84011 103.116 7.79929 103.116 9.57007C103.116 11.7553 105.188 12.7349 106.356 13.0363L108.24 13.4884C111.179 14.2042 113.514 15.5983 113.514 18.6124C113.514 22.0032 110.576 24.0001 107.449 24.0001Z" fill="#1C1C1C"/>
<path d="M15.1416 5.65142V8.32642C13.5969 6.44261 11.374 5.27466 8.92505 5.27466C4.2532 5.27466 0.485596 9.53208 0.485596 14.656C0.485596 19.8177 4.2532 23.9997 8.92505 23.9997C11.374 23.9997 13.5969 22.8318 15.1416 20.9856V23.6606H17.3645V5.65142H15.1416ZM8.92505 23.4346C5.49652 23.4346 2.70848 19.5163 2.70848 14.656C2.70848 9.79581 5.49652 5.87747 8.92505 5.87747C12.3536 5.87747 15.1416 9.79581 15.1416 14.656C15.1416 19.4786 12.3536 23.4346 8.92505 23.4346Z" fill="#1C1C1C"/>
</svg>
