<svg width="52" height="52" viewBox="0 0 52 52" fill="none" xmlns="http://www.w3.org/2000/svg">
<g id="aT Icon / Avater ">
<path id="Union" fill-rule="evenodd" clip-rule="evenodd" d="M17.556 11.7986C18.4249 10.1199 19.628 8.8258 21.1653 7.91647C22.736 6.97216 24.4905 6.5 26.4288 6.5C29.3697 6.5 31.6589 7.47928 33.2964 9.43785C34.9339 11.3964 35.7527 13.9321 35.7527 17.0448C35.7527 19.3881 35.2681 21.3991 34.299 23.0779C33.3298 24.7567 32.0599 26.0332 30.4892 26.9076C28.9185 27.747 27.2309 28.1667 25.4262 28.1667C23.4879 28.1667 21.817 27.6945 20.4134 26.7502C19.0432 25.7709 18.0072 24.4769 17.3054 22.868C16.6036 21.2592 16.2527 19.493 16.2527 17.5694C16.2527 15.401 16.6872 13.4774 17.556 11.7986ZM30.5461 20.9114C29.9447 21.9531 29.2322 22.6404 28.4131 23.1036C27.4895 23.5906 26.515 23.8333 25.4262 23.8333C24.2533 23.8333 23.4647 23.5659 22.8811 23.1871C22.2007 22.6877 21.6698 22.0353 21.2773 21.1354C20.8359 20.1236 20.586 18.9544 20.586 17.5694C20.586 15.9916 20.8982 14.7686 21.4045 13.7905C21.9226 12.7895 22.5753 12.1171 23.3715 11.6461L23.3848 11.6383L23.3981 11.6303C24.2552 11.115 25.2299 10.8333 26.4288 10.8333C28.3039 10.8333 29.2879 11.3993 29.972 12.2174C30.8234 13.2357 31.4194 14.717 31.4194 17.0448C31.4194 18.7861 31.0628 20.0163 30.5461 20.9114ZM15.5129 43.2908C16.5311 38.4315 20.8407 34.7822 26.0027 34.7822C31.1647 34.7822 35.4743 38.4315 36.4926 43.2908C36.7445 44.4933 37.7164 45.5 38.9449 45.5C40.1735 45.5 41.1865 44.4983 41.0085 43.2828C39.9354 35.9575 33.6259 30.3333 26.0027 30.3333C18.3796 30.3333 12.07 35.9575 10.997 43.2828C10.8189 44.4983 11.832 45.5 13.0605 45.5C14.289 45.5 15.2609 44.4933 15.5129 43.2908Z" fill="#828282"/>
</g>
</svg>
