<svg width="16" height="16" viewBox="0 0 16 16" fill="none" xmlns="http://www.w3.org/2000/svg">
<g id="aT Icon / Copy">
<path id="Union (Stroke)" fill-rule="evenodd" clip-rule="evenodd" d="M6.08919 11.3333C6.03246 11.4314 6 11.5452 6 11.6667V12.6667C6 13.403 6.59695 14 7.33333 14H12.6667C13.403 14 14 13.403 14 12.6667V7.33333C14 6.59695 13.403 6 12.6667 6H11.6667C11.5452 6 11.4314 6.03246 11.3333 6.08919C11.1341 6.20446 11 6.41991 11 6.66667C11 6.91343 11.1341 7.12888 11.3333 7.24415C11.4314 7.30087 11.5452 7.33333 11.6667 7.33333H12.6667V12.6667H7.33333V11.6667C7.33333 11.5452 7.30087 11.4314 7.24415 11.3333C7.12888 11.1341 6.91343 11 6.66667 11C6.41991 11 6.20446 11.1341 6.08919 11.3333ZM8.66667 10C9.40305 10 10 9.40305 10 8.66667V3.33333C10 2.59695 9.40305 2 8.66667 2H3.33333C2.59695 2 2 2.59695 2 3.33333V8.66667C2 9.40305 2.59695 10 3.33333 10H8.66667ZM3.33333 3.33333V8.66667H8.66667V3.33333L3.33333 3.33333Z" fill="black"/>
</g>
</svg>
