<svg width="28" height="16" viewBox="0 0 28 16" fill="none" xmlns="http://www.w3.org/2000/svg">
<path id="Union" fill-rule="evenodd" clip-rule="evenodd" d="M12 0C11.2636 0 10.6667 0.596954 10.6667 1.33333C10.6667 2.06971 11.2636 2.66667 12 2.66667C14.9455 2.66667 17.3333 5.05448 17.3333 8C17.3333 10.9455 14.9455 13.3333 12 13.3333C11.2636 13.3333 10.6667 13.9303 10.6667 14.6667C10.6667 15.403 11.2636 16 12 16C15.964 16 19.2546 13.117 19.8894 9.33333L26.6667 9.33333C27.403 9.33333 28 8.73638 28 8C28 7.26362 27.403 6.66667 26.6667 6.66667L19.8894 6.66667C19.2546 2.88305 15.964 0 12 0ZM13.3333 8C13.3333 8.73638 12.7364 9.33333 12 9.33333C11.2636 9.33333 10.6667 8.73638 10.6667 8C10.6667 7.26362 11.2636 6.66667 12 6.66667C12.7364 6.66667 13.3333 7.26362 13.3333 8ZM8.22761 9.33333C8.77672 10.8869 10.2584 12 12 12C14.2091 12 16 10.2091 16 8C16 5.79086 14.2091 4 12 4C10.2584 4 8.77672 5.11308 8.22761 6.66667L1.33333 6.66667C0.596954 6.66667 0 7.26362 0 8C0 8.73638 0.596953 9.33333 1.33333 9.33333L8.22761 9.33333Z" fill="#1C1C1C"/>
</svg>
