<svg width="4" height="6" viewBox="0 0 4 6" fill="none" xmlns="http://www.w3.org/2000/svg">
<path id="o" d="M3.14671 4.84576C2.85879 5.03085 2.51604 5.12339 2.11844 5.12339C1.74826 5.12339 1.40207 5.04113 1.07987 4.87661C0.757681 4.70523 0.497184 4.45501 0.298383 4.12596C0.0995831 3.79691 0.000183105 3.40274 0.000183105 2.94344C0.000183105 2.33333 0.168135 1.83633 0.504039 1.45244C0.839943 1.06855 1.30952 0.876606 1.91278 0.876606C2.31038 0.876606 2.67028 0.969151 2.99247 1.15424C3.30781 1.33248 3.5546 1.58612 3.73283 1.91517C3.91107 2.24422 4.00018 2.62125 4.00018 3.04627C4.00018 3.42331 3.9282 3.76949 3.78424 4.08483C3.64029 4.40017 3.42778 4.65381 3.14671 4.84576Z" fill="#1C1C1C"/>
</svg>
