<svg width="12" height="12" viewBox="0 0 12 12" fill="none" xmlns="http://www.w3.org/2000/svg">
<g id="Page Control">
<path id="o" d="M3.13355 10.9229C3.85335 11.3856 4.71025 11.617 5.70425 11.617C6.6297 11.617 7.49516 11.4113 8.30065 11C9.10613 10.5716 9.75738 9.94601 10.2544 9.12339C10.7514 8.30077 10.9999 7.31534 10.9999 6.16709C10.9999 4.64182 10.58 3.39931 9.74024 2.43959C8.90048 1.47986 7.72653 1 6.21839 1C5.22439 1 4.32464 1.23136 3.51916 1.69409C2.73081 2.13967 2.11385 2.77378 1.66826 3.5964C1.22267 4.41902 0.999878 5.36161 0.999878 6.42416C0.999878 7.36675 1.17983 8.23222 1.53972 9.02057C1.89962 9.80891 2.4309 10.443 3.13355 10.9229Z" fill="#1C1C1C"/>
</g>
</svg>
