<svg width="32" height="32" viewBox="0 0 32 32" fill="none" xmlns="http://www.w3.org/2000/svg">
<g id="aT Icon / PDF">
<path id="Union" fill-rule="evenodd" clip-rule="evenodd" d="M7.99951 5.33334C7.26313 5.33334 6.66618 5.93029 6.66618 6.66667V25.3344C6.66618 26.0708 7.26313 26.6677 7.99951 26.6677H23.9953C24.7317 26.6677 25.3287 26.0708 25.3287 25.3344V11.7336H21.4325C19.9598 11.7336 18.7658 10.5397 18.7658 9.06695V5.33334H7.99951ZM3.99951 6.66667C3.99951 4.45753 5.79038 2.66667 7.99951 2.66667H20.0992H20.6417L21.0301 3.04545L27.5929 9.44573L27.9953 9.83818V10.4003V25.3344C27.9953 27.5435 26.2045 29.3344 23.9953 29.3344H7.99951C5.79037 29.3344 3.99951 27.5435 3.99951 25.3344V6.66667ZM9.81644 17.2619H10.8859C11.3426 17.2619 11.7338 17.189 12.0596 17.0431C12.3881 16.8973 12.6391 16.6902 12.8126 16.422C12.9862 16.1538 13.073 15.836 13.073 15.4688C13.073 15.1068 12.9862 14.7852 12.8126 14.504C12.6391 14.2227 12.3881 14.0026 12.0596 13.8438C11.7338 13.6823 11.3426 13.6016 10.8859 13.6016H8.61475V19.2893H9.81644V17.2619ZM9.81644 16.3478V14.5196H10.8859C11.1156 14.5196 11.3025 14.5638 11.4467 14.6524C11.5909 14.7409 11.6964 14.8581 11.7632 15.004C11.8299 15.1498 11.8633 15.3074 11.8633 15.4767C11.8633 15.6433 11.8299 15.7931 11.7632 15.9259C11.6964 16.0587 11.5909 16.1629 11.4467 16.2384C11.3025 16.3113 11.1156 16.3478 10.8859 16.3478H9.81644ZM15.6922 19.2893H15.1034H14.4224H13.9017V13.6016H14.3984H15.1034H15.7042C16.0941 13.6016 16.4506 13.6667 16.7737 13.7969C17.0995 13.9245 17.3812 14.1081 17.6189 14.3477C17.8566 14.5873 18.0395 14.8738 18.1677 15.2071C18.2985 15.5379 18.3639 15.9064 18.3639 16.3126V16.5822C18.3639 16.9858 18.2985 17.3543 18.1677 17.6877C18.0395 18.021 17.8566 18.3075 17.6189 18.5471C17.3839 18.7841 17.1022 18.9677 16.7737 19.0979C16.4479 19.2255 16.0874 19.2893 15.6922 19.2893ZM15.6922 18.3752H15.1034V14.5196H15.7042C15.9365 14.5196 16.1422 14.5586 16.3211 14.6368C16.5 14.7123 16.6509 14.8256 16.7737 14.9766C16.8966 15.1277 16.9887 15.3139 17.0501 15.5352C17.1142 15.7566 17.1462 16.0131 17.1462 16.3048V16.5822C17.1462 16.9624 17.0902 17.2866 16.978 17.5549C16.8685 17.8231 16.7056 18.0275 16.4893 18.1682C16.273 18.3062 16.0073 18.3752 15.6922 18.3752ZM20.4372 14.5196V16.0314H22.7605V16.9455H20.4372V19.2893H19.2356V13.6016H20.1088H20.4372H23.0409V14.5196H20.4372Z" fill="#1C1C1C"/>
</g>
</svg>
