<svg width="24" height="24" viewBox="0 0 24 24" fill="none" xmlns="http://www.w3.org/2000/svg">
<g id="aT Icon / Setting_Outline">
<path id="Union" fill-rule="evenodd" clip-rule="evenodd" d="M17.7504 8.08055V15.9842L11.8752 19.0646L6 15.9842V8.08055L11.8752 5.00006L17.7504 8.08055ZM4 8.08055C4 7.33686 4.41264 6.65459 5.07128 6.30925L10.9465 3.22877C11.5281 2.92383 12.2223 2.92383 12.8039 3.22877L18.6792 6.30925C19.3378 6.65459 19.7504 7.33686 19.7504 8.08055V15.9842C19.7504 16.7278 19.3378 17.4101 18.6792 17.7554L12.8039 20.8359C12.2223 21.1409 11.5281 21.1409 10.9465 20.8359L5.07128 17.7554C4.41264 17.4101 4 16.7278 4 15.9842V8.08055ZM12 14.0001C13.1046 14.0001 14 13.1046 14 12.0001C14 10.8955 13.1046 10.0001 12 10.0001C10.8954 10.0001 10 10.8955 10 12.0001C10 13.1046 10.8954 14.0001 12 14.0001Z" fill="#1C1C1C"/>
</g>
</svg>
