<svg width="32" height="32" viewBox="0 0 32 32" fill="none" xmlns="http://www.w3.org/2000/svg">
<g id="aT Icon / Source">
<path id="Union" fill-rule="evenodd" clip-rule="evenodd" d="M22.6667 4C19.7211 4 17.3333 6.38781 17.3333 9.33333V14.6667H22.6667C25.6122 14.6667 28 12.2789 28 9.33333C28 6.38781 25.6122 4 22.6667 4ZM9.33333 17.3333C6.38781 17.3333 4 19.7211 4 22.6667C4 25.6122 6.38781 28 9.33333 28C12.2789 28 14.6667 25.6122 14.6667 22.6667V17.3333H9.33333ZM6.66667 9.33333C6.66667 10.8061 7.86057 12 9.33333 12C10.8061 12 12 10.8061 12 9.33333C12 7.86057 10.8061 6.66667 9.33333 6.66667C7.86057 6.66667 6.66667 7.86057 6.66667 9.33333ZM9.33333 4C6.38781 4 4 6.38781 4 9.33333C4 12.2789 6.38781 14.6667 9.33333 14.6667C12.2789 14.6667 14.6667 12.2789 14.6667 9.33333C14.6667 6.38781 12.2789 4 9.33333 4ZM22.6667 25.3333C21.1939 25.3333 20 24.1394 20 22.6667C20 21.1939 21.1939 20 22.6667 20C24.1394 20 25.3333 21.1939 25.3333 22.6667C25.3333 24.1394 24.1394 25.3333 22.6667 25.3333ZM17.3333 22.6667C17.3333 19.7211 19.7211 17.3333 22.6667 17.3333C25.6122 17.3333 28 19.7211 28 22.6667C28 25.6122 25.6122 28 22.6667 28C19.7211 28 17.3333 25.6122 17.3333 22.6667Z" fill="black"/>
</g>
</svg>
