<svg width="24" height="26" viewBox="0 0 24 26" fill="none" xmlns="http://www.w3.org/2000/svg">
<g id="Group">
<path id="Vector" d="M12.1965 26H12.1887C8.30949 25.974 5.32729 24.6948 3.32269 22.1988C1.54169 19.9758 0.621288 16.8844 0.590088 13.0104V12.9922C0.621288 9.1156 1.54169 6.0268 3.32529 3.8038C5.32729 1.3052 8.31209 0.026 12.1887 0H12.1965H12.2043C15.1787 0.0208 17.6669 0.7852 19.5987 2.2724C21.4161 3.6712 22.6953 5.6628 23.3999 8.1952L21.1899 8.8114C19.9939 4.5214 16.9675 2.3296 12.1939 2.2958C9.04269 2.3192 6.65849 3.3098 5.10889 5.239C3.66069 7.046 2.91189 9.6564 2.88329 13C2.91189 16.3436 3.66069 18.954 5.11149 20.761C6.66109 22.6928 9.04529 23.6834 12.1965 23.7042C15.0383 23.6834 16.9181 23.0204 18.4807 21.489C20.2643 19.7418 20.2331 17.5968 19.6611 16.2916C19.3257 15.522 18.7147 14.8824 17.8905 14.3962C17.6825 15.86 17.2171 17.0456 16.4995 17.94C15.5401 19.1334 14.1803 19.786 12.4591 19.8796C11.1565 19.9498 9.90069 19.643 8.92829 19.0112C7.77649 18.265 7.10309 17.1262 7.03029 15.8002C6.96009 14.5106 7.47229 13.325 8.47069 12.4618C9.42489 11.6376 10.7665 11.154 12.3525 11.063C13.5199 10.998 14.6145 11.05 15.6233 11.2164C15.4881 10.413 15.2177 9.7734 14.8121 9.3132C14.2557 8.6788 13.3951 8.3564 12.2563 8.3486C12.2459 8.3486 12.2355 8.3486 12.2251 8.3486C11.3099 8.3486 10.0671 8.6008 9.27669 9.7786L7.37349 8.502C8.43429 6.9264 10.1555 6.058 12.2251 6.058C12.2407 6.058 12.2563 6.058 12.2719 6.058C15.7325 6.0788 17.7943 8.1978 17.9997 11.895C18.1167 11.9444 18.2337 11.9964 18.3481 12.0484C19.9627 12.8076 21.1431 13.9568 21.7645 15.3738C22.6277 17.3472 22.7083 20.5634 20.0875 23.1296C18.0829 25.09 15.6519 25.9766 12.2043 26H12.1965ZM13.2833 13.3354C13.0207 13.3354 12.7555 13.3432 12.4825 13.3588C10.4935 13.4706 9.25329 14.3832 9.32349 15.6806C9.39629 17.0404 10.8965 17.6722 12.3395 17.5942C13.6655 17.524 15.3919 17.0066 15.6831 13.5746C14.9499 13.416 14.1465 13.3354 13.2833 13.3354Z" fill="#1C1C1C"/>
</g>
</svg>
