<svg width="20" height="20" viewBox="0 0 20 20" fill="none" xmlns="http://www.w3.org/2000/svg">
<path id="Vector" d="M16.6677 0.41937V3.26228C15.013 1.26274 12.6382 0 9.99763 0C4.99855 0 0.943359 4.52734 0.943359 10.0324C0.943359 15.5375 4.99856 20 9.99996 20C12.6405 20 15.0154 18.7558 16.6701 16.7725V19.6131H19.0566V0.41937H16.6701H16.6677ZM9.99763 19.3837C6.31766 19.3837 3.33453 15.1946 3.33453 10.0093C3.33453 4.82391 6.31766 0.618628 9.99763 0.618628C13.6776 0.618628 16.6607 4.82391 16.6607 10.0093C16.6607 15.1946 13.6776 19.3837 9.99763 19.3837Z" fill="#1C1C1C"/>
</svg>
