<svg width="16" height="16" viewBox="0 0 16 16" fill="none" xmlns="http://www.w3.org/2000/svg">
<g id="aT Icon / Warning">
<path id="Union" fill-rule="evenodd" clip-rule="evenodd" d="M12.6667 8C12.6667 10.5773 10.5773 12.6667 8 12.6667C5.42267 12.6667 3.33333 10.5773 3.33333 8C3.33333 5.42267 5.42267 3.33333 8 3.33333C10.5773 3.33333 12.6667 5.42267 12.6667 8ZM14 8C14 11.3137 11.3137 14 8 14C4.68629 14 2 11.3137 2 8C2 4.68629 4.68629 2 8 2C11.3137 2 14 4.68629 14 8ZM8 4.33333C8.36819 4.33333 8.66667 4.63181 8.66667 5V9C8.66667 9.36819 8.36819 9.66667 8 9.66667C7.63181 9.66667 7.33333 9.36819 7.33333 9V5C7.33333 4.63181 7.63181 4.33333 8 4.33333ZM8.66667 11C8.66667 11.3682 8.36819 11.6667 8 11.6667C7.63181 11.6667 7.33333 11.3682 7.33333 11C7.33333 10.6318 7.63181 10.3333 8 10.3333C8.36819 10.3333 8.66667 10.6318 8.66667 11Z" fill="#828282"/>
</g>
</svg>
