<svg width="32" height="32" viewBox="0 0 32 32" fill="none" xmlns="http://www.w3.org/2000/svg">
<g id="aT Icon / Link">
<path id="Union" fill-rule="evenodd" clip-rule="evenodd" d="M14.3889 6.33538C17.5026 3.22175 22.5507 3.22175 25.6644 6.33538C28.778 9.44901 28.778 14.4972 25.6644 17.6108L24.0536 19.2216C23.6088 19.6664 22.8876 19.6664 22.4428 19.2216C21.998 18.7768 21.998 18.0556 22.4428 17.6108L24.0536 16.0001C26.2776 13.776 26.2776 10.1702 24.0536 7.94616C21.8296 5.72214 18.2237 5.72214 15.9997 7.94616L14.3889 9.55694C13.9441 10.0017 13.223 10.0017 12.7781 9.55694C12.3333 9.11213 12.3333 8.39096 12.7781 7.94616L14.3889 6.33538ZM6.33547 14.3894C3.22184 17.5031 3.22184 22.5512 6.33547 25.6649C9.44909 28.7785 14.4973 28.7785 17.6109 25.6649L19.2217 24.0541C19.6665 23.6093 19.6665 22.8881 19.2217 22.4433C18.7769 21.9985 18.0557 21.9985 17.6109 22.4433L16.0001 24.0541C13.7761 26.2781 10.1703 26.2781 7.94624 24.0541C5.72222 21.8301 5.72222 18.2242 7.94624 16.0002L9.55702 14.3894C10.0018 13.9446 10.0018 13.2235 9.55702 12.7787C9.11222 12.3338 8.39105 12.3338 7.94624 12.7787L6.33547 14.3894ZM20.027 11.9732C19.5822 11.5284 18.861 11.5284 18.4162 11.9732L11.9731 18.4163C11.5283 18.8611 11.5283 19.5823 11.9731 20.0271C12.4179 20.4719 13.139 20.4719 13.5838 20.0271L20.027 13.5839C20.4718 13.1391 20.4718 12.418 20.027 11.9732Z" fill="#1C1C1C"/>
</g>
</svg>
