<svg width="10" height="10" viewBox="0 0 10 10" fill="none" xmlns="http://www.w3.org/2000/svg">
<path id="Vector" d="M5 3.88906L8.3336 0.555468C8.64037 0.248691 9.13776 0.248692 9.44453 0.555468C9.75131 0.862245 9.75131 1.35963 9.44453 1.6664L6.11094 5L9.44453 8.3336C9.75131 8.64037 9.75131 9.13776 9.44453 9.44453C9.13776 9.75131 8.64037 9.75131 8.3336 9.44453L5 6.11094L1.6664 9.44453C1.35963 9.75131 0.862245 9.75131 0.555468 9.44453C0.248692 9.13776 0.248692 8.64037 0.555468 8.3336L3.88906 5L0.555468 1.6664C0.248692 1.35963 0.248691 0.862245 0.555468 0.555468C0.862245 0.248691 1.35963 0.248692 1.6664 0.555468L5 3.88906Z" fill="#1C1C1C"/>
</svg>
