<svg width="28" height="20" viewBox="0 0 28 20" fill="none" xmlns="http://www.w3.org/2000/svg">
<path id="Vector" d="M26.7728 3.60606C26.4698 2.45454 25.5607 1.54545 24.4092 1.22727C22.3334 0.666664 14.0001 0.666664 14.0001 0.666664C14.0001 0.666664 5.66675 0.666664 3.57584 1.22727C2.42432 1.5303 1.53038 2.43939 1.2122 3.60606C0.666748 5.69697 0.666748 10.0606 0.666748 10.0606C0.666748 10.0606 0.666748 14.4242 1.22735 16.5151C1.53038 17.6667 2.43948 18.5758 3.59099 18.8939C5.66675 19.4545 14.0001 19.4545 14.0001 19.4545C14.0001 19.4545 22.3334 19.4545 24.4243 18.8939C25.5758 18.5909 26.4698 17.6818 26.788 16.5151C27.3334 14.4242 27.3334 10.0606 27.3334 10.0606C27.3334 10.0606 27.3334 5.69697 26.7728 3.60606ZM11.2728 14.0303V6.09091L18.2425 10.0606L11.2728 14.0303Z" fill="#1C1C1C"/>
</svg>
